<mxfile host="65bd71144e">
    <diagram id="DT52jx-p1epTQN54pfV6" name="Page-1">
        <mxGraphModel dx="951" dy="625" grid="1" gridSize="10" guides="1" tooltips="1" connect="1" arrows="1" fold="1" page="1" pageScale="1" pageWidth="850" pageHeight="1100" math="0" shadow="0">
            <root>
                <mxCell id="0"/>
                <mxCell id="1" parent="0"/>
                <mxCell id="2" value="" style="rounded=0;whiteSpace=wrap;html=1;fillColor=#FFFFFF;strokeColor=#82b366;" parent="1" vertex="1">
                    <mxGeometry x="40" y="40" width="640" height="1880" as="geometry"/>
                </mxCell>
                <mxCell id="3" value="" style="rounded=0;whiteSpace=wrap;html=1;fillColor=#d5e8d4;strokeColor=#82b366;" parent="1" vertex="1">
                    <mxGeometry x="40" y="40" width="640" height="1880" as="geometry"/>
                </mxCell>
                <mxCell id="4" value="&lt;b&gt;&lt;font style=&quot;font-size: 14px;&quot; color=&quot;#000000&quot;&gt;General&lt;/font&gt;&lt;/b&gt;" style="rounded=1;whiteSpace=wrap;html=1;fillColor=#CCCCCC;strokeColor=#000000;arcSize=0;" parent="1" vertex="1">
                    <mxGeometry x="70" y="70" width="280" height="30" as="geometry"/>
                </mxCell>
                <mxCell id="5" value="&lt;b&gt;Attributes&lt;/b&gt;" style="rounded=1;whiteSpace=wrap;html=1;fillColor=#CCCCCC;strokeColor=#000000;fontColor=#000000;arcSize=0;" parent="1" vertex="1">
                    <mxGeometry x="70" y="420" width="580" height="30" as="geometry"/>
                </mxCell>
                <mxCell id="6" value="&lt;b&gt;&lt;font color=&quot;#000000&quot;&gt;Divinity Line&lt;/font&gt;&lt;/b&gt;" style="rounded=1;whiteSpace=wrap;html=1;fillColor=#CCCCCC;strokeColor=#000000;arcSize=0;" parent="1" vertex="1">
                    <mxGeometry x="370" y="70" width="280" height="30" as="geometry"/>
                </mxCell>
                <mxCell id="7" value="&lt;font style=&quot;font-size: 14px;&quot; color=&quot;#000000&quot;&gt;Naza&lt;/font&gt;" style="shape=partialRectangle;whiteSpace=wrap;html=1;bottom=1;right=1;left=1;top=0;fillColor=#FFFFFF;routingCenterX=-0.5;shadow=0;comic=0;strokeColor=#000000;fontSize=17;" parent="1" vertex="1">
                    <mxGeometry x="70" y="129" width="280" height="30" as="geometry"/>
                </mxCell>
                <mxCell id="8" value="&lt;font size=&quot;1&quot; style=&quot;&quot; color=&quot;#000000&quot;&gt;&lt;b style=&quot;font-size: 12px;&quot;&gt;Name&lt;/b&gt;&lt;/font&gt;" style="shape=partialRectangle;whiteSpace=wrap;html=1;bottom=1;right=1;left=1;top=0;fillColor=#FFFFFF;routingCenterX=-0.5;shadow=0;comic=0;strokeColor=#000000;fontSize=17;direction=west;" parent="1" vertex="1">
                    <mxGeometry x="70" y="100" width="280" height="30" as="geometry"/>
                </mxCell>
                <mxCell id="9" value="" style="line;strokeWidth=1;html=1;shadow=0;comic=0;strokeColor=#000000;fontSize=17;fillColor=#FFFFFF;" parent="1" vertex="1">
                    <mxGeometry x="120" y="130" width="190" height="1" as="geometry"/>
                </mxCell>
                <mxCell id="10" value="&lt;font style=&quot;font-size: 14px;&quot; color=&quot;#000000&quot;&gt;-&lt;/font&gt;" style="shape=partialRectangle;whiteSpace=wrap;html=1;bottom=1;right=1;left=1;top=0;fillColor=#FFFFFF;routingCenterX=-0.5;shadow=0;comic=0;strokeColor=#000000;fontSize=17;" parent="1" vertex="1">
                    <mxGeometry x="370" y="129" width="280" height="30" as="geometry"/>
                </mxCell>
                <mxCell id="11" value="&lt;font size=&quot;1&quot; style=&quot;&quot; color=&quot;#000000&quot;&gt;&lt;b style=&quot;font-size: 12px;&quot;&gt;&lt;i&gt;Locked&lt;/i&gt;&lt;/b&gt;&lt;/font&gt;" style="shape=partialRectangle;whiteSpace=wrap;html=1;bottom=1;right=1;left=1;top=0;fillColor=#FFFFFF;routingCenterX=-0.5;shadow=0;comic=0;strokeColor=#000000;fontSize=17;direction=west;" parent="1" vertex="1">
                    <mxGeometry x="370" y="100" width="280" height="30" as="geometry"/>
                </mxCell>
                <mxCell id="12" value="" style="line;strokeWidth=1;html=1;shadow=0;comic=0;strokeColor=#000000;fontSize=17;fillColor=#FFFFFF;" parent="1" vertex="1">
                    <mxGeometry x="440" y="130" width="140" height="1" as="geometry"/>
                </mxCell>
                <mxCell id="13" value="&lt;font style=&quot;font-size: 14px;&quot; color=&quot;#000000&quot;&gt;32&lt;/font&gt;" style="shape=partialRectangle;whiteSpace=wrap;html=1;bottom=1;right=1;left=1;top=0;fillColor=#FFFFFF;routingCenterX=-0.5;shadow=0;comic=0;strokeColor=#000000;fontSize=17;" parent="1" vertex="1">
                    <mxGeometry x="70" y="188" width="280" height="30" as="geometry"/>
                </mxCell>
                <mxCell id="14" value="&lt;font size=&quot;1&quot; style=&quot;&quot; color=&quot;#000000&quot;&gt;&lt;b style=&quot;font-size: 12px;&quot;&gt;Level&lt;/b&gt;&lt;/font&gt;" style="shape=partialRectangle;whiteSpace=wrap;html=1;bottom=1;right=1;left=1;top=0;fillColor=#FFFFFF;routingCenterX=-0.5;shadow=0;comic=0;strokeColor=#000000;fontSize=17;direction=west;" parent="1" vertex="1">
                    <mxGeometry x="70" y="159" width="280" height="30" as="geometry"/>
                </mxCell>
                <mxCell id="15" value="" style="line;strokeWidth=1;html=1;shadow=0;comic=0;strokeColor=#000000;fontSize=17;fillColor=#FFFFFF;" parent="1" vertex="1">
                    <mxGeometry x="120" y="189" width="190" height="1" as="geometry"/>
                </mxCell>
                <mxCell id="16" value="3200" style="shape=partialRectangle;whiteSpace=wrap;html=1;bottom=1;right=1;left=1;top=0;fillColor=#FFFFFF;routingCenterX=-0.5;shadow=0;comic=0;strokeColor=#000000;strokeWidth=1;fontSize=14;fontColor=#000000;" parent="1" vertex="1">
                    <mxGeometry x="210" y="247" width="140" height="30" as="geometry"/>
                </mxCell>
                <mxCell id="17" value="3128" style="shape=partialRectangle;whiteSpace=wrap;html=1;bottom=1;right=1;left=1;top=0;fillColor=#FFFFFF;routingCenterX=-0.5;shadow=0;comic=0;strokeColor=#000000;strokeWidth=1;fontSize=14;fontColor=#000000;" parent="1" vertex="1">
                    <mxGeometry x="70" y="247" width="140" height="30" as="geometry"/>
                </mxCell>
                <mxCell id="18" value="" style="line;strokeWidth=1;html=1;shadow=0;comic=0;strokeColor=#000000;fontSize=17;fillColor=#FFFFFF;" parent="1" vertex="1">
                    <mxGeometry x="120" y="248" width="190" height="1" as="geometry"/>
                </mxCell>
                <mxCell id="19" value="&lt;font size=&quot;1&quot; style=&quot;&quot; color=&quot;#000000&quot;&gt;&lt;b style=&quot;font-size: 12px;&quot;&gt;Experience&lt;/b&gt;&lt;/font&gt;" style="shape=partialRectangle;whiteSpace=wrap;html=1;bottom=1;right=1;left=1;top=0;fillColor=#FFFFFF;routingCenterX=-0.5;shadow=0;comic=0;strokeColor=#000000;fontSize=17;direction=west;" parent="1" vertex="1">
                    <mxGeometry x="70" y="218" width="280" height="30" as="geometry"/>
                </mxCell>
                <mxCell id="20" value="110" style="shape=partialRectangle;whiteSpace=wrap;html=1;bottom=1;right=1;left=1;top=0;fillColor=#FFFFFF;routingCenterX=-0.5;shadow=0;comic=0;strokeColor=#000000;strokeWidth=1;fontSize=14;fontColor=#000000;" parent="1" vertex="1">
                    <mxGeometry x="210" y="306" width="140" height="30" as="geometry"/>
                </mxCell>
                <mxCell id="21" value="53" style="shape=partialRectangle;whiteSpace=wrap;html=1;bottom=1;right=1;left=1;top=0;fillColor=#FFFFFF;routingCenterX=-0.5;shadow=0;comic=0;strokeColor=#000000;strokeWidth=1;fontSize=14;fontColor=#000000;" parent="1" vertex="1">
                    <mxGeometry x="70" y="306" width="140" height="30" as="geometry"/>
                </mxCell>
                <mxCell id="22" value="" style="line;strokeWidth=1;html=1;shadow=0;comic=0;strokeColor=#000000;fontSize=17;fillColor=#FFFFFF;" parent="1" vertex="1">
                    <mxGeometry x="120" y="307" width="190" height="1" as="geometry"/>
                </mxCell>
                <mxCell id="23" value="&lt;font size=&quot;1&quot; style=&quot;&quot; color=&quot;#000000&quot;&gt;&lt;b style=&quot;font-size: 12px;&quot;&gt;Health Points&lt;/b&gt;&lt;/font&gt;" style="shape=partialRectangle;whiteSpace=wrap;html=1;bottom=1;right=1;left=1;top=0;fillColor=#FFFFFF;routingCenterX=-0.5;shadow=0;comic=0;strokeColor=#000000;fontSize=17;direction=west;" parent="1" vertex="1">
                    <mxGeometry x="70" y="277" width="280" height="30" as="geometry"/>
                </mxCell>
                <mxCell id="24" value="110" style="shape=partialRectangle;whiteSpace=wrap;html=1;bottom=1;right=1;left=1;top=0;fillColor=#FFFFFF;routingCenterX=-0.5;shadow=0;comic=0;strokeColor=#000000;strokeWidth=1;fontSize=14;fontColor=#000000;" parent="1" vertex="1">
                    <mxGeometry x="210" y="365" width="140" height="30" as="geometry"/>
                </mxCell>
                <mxCell id="25" value="47" style="shape=partialRectangle;whiteSpace=wrap;html=1;bottom=1;right=1;left=1;top=0;fillColor=#FFFFFF;routingCenterX=-0.5;shadow=0;comic=0;strokeColor=#000000;strokeWidth=1;fontSize=14;fontColor=#000000;" parent="1" vertex="1">
                    <mxGeometry x="70" y="365" width="140" height="30" as="geometry"/>
                </mxCell>
                <mxCell id="26" value="" style="line;strokeWidth=1;html=1;shadow=0;comic=0;strokeColor=#000000;fontSize=17;fillColor=#FFFFFF;" parent="1" vertex="1">
                    <mxGeometry x="120" y="366" width="190" height="1" as="geometry"/>
                </mxCell>
                <mxCell id="27" value="&lt;font size=&quot;1&quot; style=&quot;&quot; color=&quot;#000000&quot;&gt;&lt;b style=&quot;font-size: 12px;&quot;&gt;Mana Points&lt;/b&gt;&lt;/font&gt;" style="shape=partialRectangle;whiteSpace=wrap;html=1;bottom=1;right=1;left=1;top=0;fillColor=#FFFFFF;routingCenterX=-0.5;shadow=0;comic=0;strokeColor=#000000;fontSize=17;direction=west;" parent="1" vertex="1">
                    <mxGeometry x="70" y="336" width="280" height="30" as="geometry"/>
                </mxCell>
                <mxCell id="28" value="-" style="shape=partialRectangle;whiteSpace=wrap;html=1;bottom=1;right=1;left=1;top=0;fillColor=#FFFFFF;routingCenterX=-0.5;shadow=0;comic=0;strokeColor=#000000;strokeWidth=1;fontSize=14;fontColor=#000000;" parent="1" vertex="1">
                    <mxGeometry x="600" y="246" width="50" height="30" as="geometry"/>
                </mxCell>
                <mxCell id="29" value="-" style="shape=partialRectangle;whiteSpace=wrap;html=1;bottom=1;right=1;left=1;top=0;fillColor=#FFFFFF;routingCenterX=-0.5;shadow=0;comic=0;strokeColor=#000000;strokeWidth=1;fontSize=14;fontColor=#000000;" parent="1" vertex="1">
                    <mxGeometry x="370" y="246" width="230" height="30" as="geometry"/>
                </mxCell>
                <mxCell id="30" value="&lt;font size=&quot;1&quot; style=&quot;&quot; color=&quot;#000000&quot;&gt;&lt;b style=&quot;font-size: 12px;&quot;&gt;&lt;i&gt;Locked&lt;/i&gt;&lt;/b&gt;&lt;/font&gt;" style="shape=partialRectangle;whiteSpace=wrap;html=1;bottom=1;right=1;left=1;top=0;fillColor=#FFFFFF;routingCenterX=-0.5;shadow=0;comic=0;strokeColor=#000000;fontSize=17;direction=west;" parent="1" vertex="1">
                    <mxGeometry x="370" y="217" width="280" height="30" as="geometry"/>
                </mxCell>
                <mxCell id="484" value="" style="edgeStyle=none;html=1;" parent="1" source="31" target="40" edge="1">
                    <mxGeometry relative="1" as="geometry"/>
                </mxCell>
                <mxCell id="31" value="" style="line;strokeWidth=1;html=1;shadow=0;comic=0;strokeColor=#000000;fontSize=17;fillColor=#FFFFFF;" parent="1" vertex="1">
                    <mxGeometry x="390" y="247" width="240" height="1" as="geometry"/>
                </mxCell>
                <mxCell id="32" value="-" style="shape=partialRectangle;whiteSpace=wrap;html=1;bottom=1;right=1;left=1;top=0;fillColor=#FFFFFF;routingCenterX=-0.5;shadow=0;comic=0;strokeColor=#000000;strokeWidth=1;fontSize=14;fontColor=#000000;" parent="1" vertex="1">
                    <mxGeometry x="600" y="305" width="50" height="30" as="geometry"/>
                </mxCell>
                <mxCell id="33" value="-" style="shape=partialRectangle;whiteSpace=wrap;html=1;bottom=1;right=1;left=1;top=0;fillColor=#FFFFFF;routingCenterX=-0.5;shadow=0;comic=0;strokeColor=#000000;strokeWidth=1;fontSize=14;fontColor=#000000;" parent="1" vertex="1">
                    <mxGeometry x="370" y="305" width="230" height="30" as="geometry"/>
                </mxCell>
                <mxCell id="34" value="&lt;font size=&quot;1&quot; style=&quot;&quot; color=&quot;#000000&quot;&gt;&lt;b style=&quot;font-size: 12px;&quot;&gt;&lt;i&gt;Locked&lt;/i&gt;&lt;/b&gt;&lt;/font&gt;" style="shape=partialRectangle;whiteSpace=wrap;html=1;bottom=1;right=1;left=1;top=0;fillColor=#FFFFFF;routingCenterX=-0.5;shadow=0;comic=0;strokeColor=#000000;fontSize=17;direction=west;" parent="1" vertex="1">
                    <mxGeometry x="370" y="276" width="280" height="30" as="geometry"/>
                </mxCell>
                <mxCell id="35" value="" style="line;strokeWidth=1;html=1;shadow=0;comic=0;strokeColor=#000000;fontSize=17;fillColor=#FFFFFF;" parent="1" vertex="1">
                    <mxGeometry x="390" y="306" width="240" height="1" as="geometry"/>
                </mxCell>
                <mxCell id="36" value="-" style="shape=partialRectangle;whiteSpace=wrap;html=1;bottom=1;right=1;left=1;top=0;fillColor=#FFFFFF;routingCenterX=-0.5;shadow=0;comic=0;strokeColor=#000000;strokeWidth=1;fontSize=14;fontColor=#000000;" parent="1" vertex="1">
                    <mxGeometry x="600" y="364" width="50" height="30" as="geometry"/>
                </mxCell>
                <mxCell id="37" value="-" style="shape=partialRectangle;whiteSpace=wrap;html=1;bottom=1;right=1;left=1;top=0;fillColor=#FFFFFF;routingCenterX=-0.5;shadow=0;comic=0;strokeColor=#000000;strokeWidth=1;fontSize=14;fontColor=#000000;" parent="1" vertex="1">
                    <mxGeometry x="370" y="364" width="230" height="30" as="geometry"/>
                </mxCell>
                <mxCell id="38" value="&lt;font size=&quot;1&quot; style=&quot;&quot; color=&quot;#000000&quot;&gt;&lt;b style=&quot;font-size: 12px;&quot;&gt;&lt;i&gt;Locked&lt;/i&gt;&lt;/b&gt;&lt;/font&gt;" style="shape=partialRectangle;whiteSpace=wrap;html=1;bottom=1;right=1;left=1;top=0;fillColor=#FFFFFF;routingCenterX=-0.5;shadow=0;comic=0;strokeColor=#000000;fontSize=17;direction=west;" parent="1" vertex="1">
                    <mxGeometry x="370" y="335" width="280" height="30" as="geometry"/>
                </mxCell>
                <mxCell id="39" value="" style="line;strokeWidth=1;html=1;shadow=0;comic=0;strokeColor=#000000;fontSize=17;fillColor=#FFFFFF;" parent="1" vertex="1">
                    <mxGeometry x="390" y="365" width="240" height="1" as="geometry"/>
                </mxCell>
                <mxCell id="40" value="&lt;b&gt;&lt;font color=&quot;#000000&quot;&gt;Mystic Skills&lt;/font&gt;&lt;/b&gt;" style="rounded=1;whiteSpace=wrap;html=1;fillColor=#CCCCCC;strokeColor=#000000;arcSize=0;" parent="1" vertex="1">
                    <mxGeometry x="370" y="187" width="280" height="30" as="geometry"/>
                </mxCell>
                <mxCell id="50" value="&lt;font style=&quot;font-size: 14px;&quot; color=&quot;#000000&quot;&gt;12&lt;/font&gt;" style="shape=partialRectangle;whiteSpace=wrap;html=1;bottom=1;right=1;left=1;top=0;fillColor=#FFFFFF;routingCenterX=-0.5;shadow=0;comic=0;strokeColor=#000000;fontSize=17;" parent="1" vertex="1">
                    <mxGeometry x="360" y="479" width="290" height="30" as="geometry"/>
                </mxCell>
                <mxCell id="51" value="&lt;font size=&quot;1&quot; style=&quot;&quot; color=&quot;#000000&quot;&gt;&lt;b style=&quot;font-size: 12px;&quot;&gt;Perception&lt;/b&gt;&lt;/font&gt;" style="shape=partialRectangle;whiteSpace=wrap;html=1;bottom=1;right=1;left=1;top=0;fillColor=#FFFFFF;routingCenterX=-0.5;shadow=0;comic=0;strokeColor=#000000;fontSize=17;direction=west;gradientColor=none;gradientDirection=west;" parent="1" vertex="1">
                    <mxGeometry x="360" y="450" width="290" height="30" as="geometry"/>
                </mxCell>
                <mxCell id="52" value="" style="line;strokeWidth=1;html=1;shadow=0;comic=0;strokeColor=#000000;fontSize=17;fillColor=#FFFFFF;" parent="1" vertex="1">
                    <mxGeometry x="400" y="480" width="210" height="1" as="geometry"/>
                </mxCell>
                <mxCell id="77" value="&lt;b&gt;Skills&lt;/b&gt;" style="rounded=1;whiteSpace=wrap;html=1;fillColor=#CCCCCC;strokeColor=#000000;fontColor=#000000;arcSize=0;" parent="1" vertex="1">
                    <mxGeometry x="70" y="830" width="580" height="30" as="geometry"/>
                </mxCell>
                <mxCell id="485" value="&lt;font style=&quot;font-size: 14px;&quot; color=&quot;#000000&quot;&gt;7&lt;/font&gt;" style="shape=partialRectangle;whiteSpace=wrap;html=1;bottom=1;right=1;left=1;top=0;fillColor=#FFFFFF;routingCenterX=-0.5;shadow=0;comic=0;strokeColor=#000000;fontSize=17;" parent="1" vertex="1">
                    <mxGeometry x="70" y="479" width="290" height="30" as="geometry"/>
                </mxCell>
                <mxCell id="486" value="&lt;font size=&quot;1&quot; style=&quot;&quot; color=&quot;#000000&quot;&gt;&lt;b style=&quot;font-size: 12px;&quot;&gt;Strength&lt;/b&gt;&lt;/font&gt;" style="shape=partialRectangle;whiteSpace=wrap;html=1;bottom=1;right=1;left=1;top=0;fillColor=#FFFFFF;routingCenterX=-0.5;shadow=0;comic=0;strokeColor=#000000;fontSize=17;direction=west;gradientColor=none;gradientDirection=west;" parent="1" vertex="1">
                    <mxGeometry x="70" y="450" width="290" height="30" as="geometry"/>
                </mxCell>
                <mxCell id="487" value="" style="line;strokeWidth=1;html=1;shadow=0;comic=0;strokeColor=#000000;fontSize=17;fillColor=#FFFFFF;" parent="1" vertex="1">
                    <mxGeometry x="110" y="480" width="210" height="1" as="geometry"/>
                </mxCell>
                <mxCell id="488" value="&lt;font style=&quot;font-size: 14px;&quot; color=&quot;#000000&quot;&gt;11&lt;/font&gt;" style="shape=partialRectangle;whiteSpace=wrap;html=1;bottom=1;right=1;left=1;top=0;fillColor=#FFFFFF;routingCenterX=-0.5;shadow=0;comic=0;strokeColor=#000000;fontSize=17;" parent="1" vertex="1">
                    <mxGeometry x="360" y="538" width="290" height="30" as="geometry"/>
                </mxCell>
                <mxCell id="489" value="&lt;font size=&quot;1&quot; style=&quot;&quot; color=&quot;#000000&quot;&gt;&lt;b style=&quot;font-size: 12px;&quot;&gt;Intelligence&lt;/b&gt;&lt;/font&gt;" style="shape=partialRectangle;whiteSpace=wrap;html=1;bottom=1;right=1;left=1;top=0;fillColor=#FFFFFF;routingCenterX=-0.5;shadow=0;comic=0;strokeColor=#000000;fontSize=17;direction=west;gradientColor=none;gradientDirection=west;" parent="1" vertex="1">
                    <mxGeometry x="360" y="509" width="290" height="30" as="geometry"/>
                </mxCell>
                <mxCell id="490" value="" style="line;strokeWidth=1;html=1;shadow=0;comic=0;strokeColor=#000000;fontSize=17;fillColor=#FFFFFF;" parent="1" vertex="1">
                    <mxGeometry x="400" y="539" width="210" height="1" as="geometry"/>
                </mxCell>
                <mxCell id="491" value="&lt;font style=&quot;font-size: 14px;&quot; color=&quot;#000000&quot;&gt;9&lt;/font&gt;" style="shape=partialRectangle;whiteSpace=wrap;html=1;bottom=1;right=1;left=1;top=0;fillColor=#FFFFFF;routingCenterX=-0.5;shadow=0;comic=0;strokeColor=#000000;fontSize=17;" parent="1" vertex="1">
                    <mxGeometry x="70" y="538" width="290" height="30" as="geometry"/>
                </mxCell>
                <mxCell id="492" value="&lt;font size=&quot;1&quot; style=&quot;&quot; color=&quot;#000000&quot;&gt;&lt;b style=&quot;font-size: 12px;&quot;&gt;Dexterity&lt;/b&gt;&lt;/font&gt;" style="shape=partialRectangle;whiteSpace=wrap;html=1;bottom=1;right=1;left=1;top=0;fillColor=#FFFFFF;routingCenterX=-0.5;shadow=0;comic=0;strokeColor=#000000;fontSize=17;direction=west;gradientColor=none;gradientDirection=west;" parent="1" vertex="1">
                    <mxGeometry x="70" y="509" width="290" height="30" as="geometry"/>
                </mxCell>
                <mxCell id="493" value="" style="line;strokeWidth=1;html=1;shadow=0;comic=0;strokeColor=#000000;fontSize=17;fillColor=#FFFFFF;" parent="1" vertex="1">
                    <mxGeometry x="110" y="539" width="210" height="1" as="geometry"/>
                </mxCell>
                <mxCell id="494" value="&lt;font style=&quot;font-size: 14px;&quot; color=&quot;#000000&quot;&gt;Locked&lt;/font&gt;" style="shape=partialRectangle;whiteSpace=wrap;html=1;bottom=1;right=1;left=1;top=0;fillColor=#FFFFFF;routingCenterX=-0.5;shadow=0;comic=0;strokeColor=#000000;fontSize=17;" parent="1" vertex="1">
                    <mxGeometry x="360" y="597" width="290" height="30" as="geometry"/>
                </mxCell>
                <mxCell id="495" value="&lt;font size=&quot;1&quot; style=&quot;&quot; color=&quot;#000000&quot;&gt;&lt;b style=&quot;font-size: 12px;&quot;&gt;Essence&lt;/b&gt;&lt;/font&gt;" style="shape=partialRectangle;whiteSpace=wrap;html=1;bottom=1;right=1;left=1;top=0;fillColor=#FFFFFF;routingCenterX=-0.5;shadow=0;comic=0;strokeColor=#000000;fontSize=17;direction=west;gradientColor=none;gradientDirection=west;" parent="1" vertex="1">
                    <mxGeometry x="360" y="568" width="290" height="30" as="geometry"/>
                </mxCell>
                <mxCell id="496" value="" style="line;strokeWidth=1;html=1;shadow=0;comic=0;strokeColor=#000000;fontSize=17;fillColor=#FFFFFF;" parent="1" vertex="1">
                    <mxGeometry x="400" y="598" width="210" height="1" as="geometry"/>
                </mxCell>
                <mxCell id="497" value="&lt;font style=&quot;font-size: 14px;&quot; color=&quot;#000000&quot;&gt;Locked&lt;/font&gt;" style="shape=partialRectangle;whiteSpace=wrap;html=1;bottom=1;right=1;left=1;top=0;fillColor=#FFFFFF;routingCenterX=-0.5;shadow=0;comic=0;strokeColor=#000000;fontSize=17;" parent="1" vertex="1">
                    <mxGeometry x="70" y="597" width="290" height="30" as="geometry"/>
                </mxCell>
                <mxCell id="498" value="&lt;font size=&quot;1&quot; style=&quot;&quot; color=&quot;#000000&quot;&gt;&lt;b style=&quot;font-size: 12px;&quot;&gt;Aura&lt;/b&gt;&lt;/font&gt;" style="shape=partialRectangle;whiteSpace=wrap;html=1;bottom=1;right=1;left=1;top=0;fillColor=#FFFFFF;routingCenterX=-0.5;shadow=0;comic=0;strokeColor=#000000;fontSize=17;direction=west;gradientColor=none;gradientDirection=west;" parent="1" vertex="1">
                    <mxGeometry x="70" y="568" width="290" height="30" as="geometry"/>
                </mxCell>
                <mxCell id="499" value="" style="line;strokeWidth=1;html=1;shadow=0;comic=0;strokeColor=#000000;fontSize=17;fillColor=#FFFFFF;" parent="1" vertex="1">
                    <mxGeometry x="110" y="598" width="210" height="1" as="geometry"/>
                </mxCell>
                <mxCell id="500" value="&lt;font style=&quot;font-size: 14px;&quot; color=&quot;#000000&quot;&gt;13&lt;/font&gt;" style="shape=partialRectangle;whiteSpace=wrap;html=1;bottom=1;right=1;left=1;top=0;fillColor=#FFFFFF;routingCenterX=-0.5;shadow=0;comic=0;strokeColor=#000000;fontSize=17;" parent="1" vertex="1">
                    <mxGeometry x="360" y="656" width="290" height="30" as="geometry"/>
                </mxCell>
                <mxCell id="501" value="&lt;font size=&quot;1&quot; style=&quot;&quot; color=&quot;#000000&quot;&gt;&lt;b style=&quot;font-size: 12px;&quot;&gt;Charisma&lt;/b&gt;&lt;/font&gt;" style="shape=partialRectangle;whiteSpace=wrap;html=1;bottom=1;right=1;left=1;top=0;fillColor=#FFFFFF;routingCenterX=-0.5;shadow=0;comic=0;strokeColor=#000000;fontSize=17;direction=west;gradientColor=none;gradientDirection=west;" parent="1" vertex="1">
                    <mxGeometry x="360" y="627" width="290" height="30" as="geometry"/>
                </mxCell>
                <mxCell id="502" value="" style="line;strokeWidth=1;html=1;shadow=0;comic=0;strokeColor=#000000;fontSize=17;fillColor=#FFFFFF;" parent="1" vertex="1">
                    <mxGeometry x="400" y="657" width="210" height="1" as="geometry"/>
                </mxCell>
                <mxCell id="503" value="&lt;font style=&quot;font-size: 14px;&quot; color=&quot;#000000&quot;&gt;11&lt;/font&gt;" style="shape=partialRectangle;whiteSpace=wrap;html=1;bottom=1;right=1;left=1;top=0;fillColor=#FFFFFF;routingCenterX=-0.5;shadow=0;comic=0;strokeColor=#000000;fontSize=17;" parent="1" vertex="1">
                    <mxGeometry x="70" y="656" width="290" height="30" as="geometry"/>
                </mxCell>
                <mxCell id="504" value="&lt;font size=&quot;1&quot; style=&quot;&quot; color=&quot;#000000&quot;&gt;&lt;b style=&quot;font-size: 12px;&quot;&gt;Constitution&lt;/b&gt;&lt;/font&gt;" style="shape=partialRectangle;whiteSpace=wrap;html=1;bottom=1;right=1;left=1;top=0;fillColor=#FFFFFF;routingCenterX=-0.5;shadow=0;comic=0;strokeColor=#000000;fontSize=17;direction=west;gradientColor=none;gradientDirection=west;" parent="1" vertex="1">
                    <mxGeometry x="70" y="627" width="290" height="30" as="geometry"/>
                </mxCell>
                <mxCell id="505" value="" style="line;strokeWidth=1;html=1;shadow=0;comic=0;strokeColor=#000000;fontSize=17;fillColor=#FFFFFF;" parent="1" vertex="1">
                    <mxGeometry x="110" y="657" width="210" height="1" as="geometry"/>
                </mxCell>
                <mxCell id="506" value="&lt;font style=&quot;font-size: 14px;&quot; color=&quot;#000000&quot;&gt;7&lt;/font&gt;" style="shape=partialRectangle;whiteSpace=wrap;html=1;bottom=1;right=1;left=1;top=0;fillColor=#FFFFFF;routingCenterX=-0.5;shadow=0;comic=0;strokeColor=#000000;fontSize=17;" parent="1" vertex="1">
                    <mxGeometry x="360" y="715" width="290" height="30" as="geometry"/>
                </mxCell>
                <mxCell id="507" value="&lt;font size=&quot;1&quot; style=&quot;&quot; color=&quot;#000000&quot;&gt;&lt;b style=&quot;font-size: 12px;&quot;&gt;Luck&lt;/b&gt;&lt;/font&gt;" style="shape=partialRectangle;whiteSpace=wrap;html=1;bottom=1;right=1;left=1;top=0;fillColor=#FFFFFF;routingCenterX=-0.5;shadow=0;comic=0;strokeColor=#000000;fontSize=17;direction=west;gradientColor=none;gradientDirection=west;" parent="1" vertex="1">
                    <mxGeometry x="360" y="686" width="290" height="30" as="geometry"/>
                </mxCell>
                <mxCell id="508" value="" style="line;strokeWidth=1;html=1;shadow=0;comic=0;strokeColor=#000000;fontSize=17;fillColor=#FFFFFF;" parent="1" vertex="1">
                    <mxGeometry x="400" y="716" width="210" height="1" as="geometry"/>
                </mxCell>
                <mxCell id="509" value="&lt;font color=&quot;#000000&quot;&gt;&lt;span style=&quot;font-size: 14px;&quot;&gt;17&lt;/span&gt;&lt;/font&gt;" style="shape=partialRectangle;whiteSpace=wrap;html=1;bottom=1;right=1;left=1;top=0;fillColor=#FFFFFF;routingCenterX=-0.5;shadow=0;comic=0;strokeColor=#000000;fontSize=17;" parent="1" vertex="1">
                    <mxGeometry x="70" y="715" width="290" height="30" as="geometry"/>
                </mxCell>
                <mxCell id="510" value="&lt;font size=&quot;1&quot; style=&quot;&quot; color=&quot;#000000&quot;&gt;&lt;b style=&quot;font-size: 12px;&quot;&gt;Spirit&lt;/b&gt;&lt;/font&gt;" style="shape=partialRectangle;whiteSpace=wrap;html=1;bottom=1;right=1;left=1;top=0;fillColor=#FFFFFF;routingCenterX=-0.5;shadow=0;comic=0;strokeColor=#000000;fontSize=17;direction=west;gradientColor=none;gradientDirection=west;" parent="1" vertex="1">
                    <mxGeometry x="70" y="686" width="290" height="30" as="geometry"/>
                </mxCell>
                <mxCell id="511" value="" style="line;strokeWidth=1;html=1;shadow=0;comic=0;strokeColor=#000000;fontSize=17;fillColor=#FFFFFF;" parent="1" vertex="1">
                    <mxGeometry x="110" y="716" width="210" height="1" as="geometry"/>
                </mxCell>
                <mxCell id="512" value="&lt;font style=&quot;font-size: 14px;&quot; color=&quot;#000000&quot;&gt;Locked (31)&lt;/font&gt;" style="shape=partialRectangle;whiteSpace=wrap;html=1;bottom=1;right=1;left=1;top=0;fillColor=#FFFFFF;routingCenterX=-0.5;shadow=0;comic=0;strokeColor=#000000;fontSize=17;" parent="1" vertex="1">
                    <mxGeometry x="360" y="774" width="290" height="30" as="geometry"/>
                </mxCell>
                <mxCell id="513" value="&lt;font size=&quot;1&quot; style=&quot;&quot; color=&quot;#000000&quot;&gt;&lt;b style=&quot;font-size: 12px;&quot;&gt;Free Stat Points&lt;/b&gt;&lt;/font&gt;" style="shape=partialRectangle;whiteSpace=wrap;html=1;bottom=1;right=1;left=1;top=0;fillColor=#FFFFFF;routingCenterX=-0.5;shadow=0;comic=0;strokeColor=#000000;fontSize=17;direction=west;gradientColor=none;gradientDirection=west;" parent="1" vertex="1">
                    <mxGeometry x="360" y="745" width="290" height="30" as="geometry"/>
                </mxCell>
                <mxCell id="514" value="" style="line;strokeWidth=1;html=1;shadow=0;comic=0;strokeColor=#000000;fontSize=17;fillColor=#FFFFFF;" parent="1" vertex="1">
                    <mxGeometry x="400" y="775" width="210" height="1" as="geometry"/>
                </mxCell>
                <mxCell id="515" value="&lt;font style=&quot;font-size: 14px;&quot; color=&quot;#000000&quot;&gt;Locked&lt;/font&gt;" style="shape=partialRectangle;whiteSpace=wrap;html=1;bottom=1;right=1;left=1;top=0;fillColor=#FFFFFF;routingCenterX=-0.5;shadow=0;comic=0;strokeColor=#000000;fontSize=17;" parent="1" vertex="1">
                    <mxGeometry x="70" y="774" width="290" height="30" as="geometry"/>
                </mxCell>
                <mxCell id="516" value="&lt;font size=&quot;1&quot; style=&quot;&quot; color=&quot;#000000&quot;&gt;&lt;b style=&quot;font-size: 12px;&quot;&gt;Defense&lt;/b&gt;&lt;/font&gt;" style="shape=partialRectangle;whiteSpace=wrap;html=1;bottom=1;right=1;left=1;top=0;fillColor=#FFFFFF;routingCenterX=-0.5;shadow=0;comic=0;strokeColor=#000000;fontSize=17;direction=west;gradientColor=none;gradientDirection=west;" parent="1" vertex="1">
                    <mxGeometry x="70" y="745" width="290" height="30" as="geometry"/>
                </mxCell>
                <mxCell id="517" value="" style="line;strokeWidth=1;html=1;shadow=0;comic=0;strokeColor=#000000;fontSize=17;fillColor=#FFFFFF;" parent="1" vertex="1">
                    <mxGeometry x="110" y="775" width="210" height="1" as="geometry"/>
                </mxCell>
                <UserObject label="%Skill%&lt;hr&gt;%Level%" Skill="Literacy" Level="11" Experience="66" placeholders="1" id="585">
                    <mxCell style="shape=partialRectangle;whiteSpace=wrap;html=1;shadow=0;comic=0;pointerEvents=1;strokeColor=#000000;strokeWidth=1;fontFamily=Helvetica;fontSize=12;fillColor=#FFFFFF;fontColor=#000000;" vertex="1" parent="1">
                        <mxGeometry x="70" y="860" width="145" height="60" as="geometry"/>
                    </mxCell>
                </UserObject>
                <UserObject label="%Skill%&lt;hr&gt;%Level%" Skill="Mathematics" Level="8" Experience="36" placeholders="1" id="586">
                    <mxCell style="shape=partialRectangle;whiteSpace=wrap;html=1;shadow=0;comic=0;pointerEvents=1;strokeColor=#000000;strokeWidth=1;fontFamily=Helvetica;fontSize=12;fillColor=#FFFFFF;fontColor=#000000;" vertex="1" parent="1">
                        <mxGeometry x="70" y="920" width="145" height="60" as="geometry"/>
                    </mxCell>
                </UserObject>
                <UserObject label="%Skill%&lt;hr&gt;%Level%" Skill="Drawing" Level="8" Experience="36" placeholders="1" id="587">
                    <mxCell style="shape=partialRectangle;whiteSpace=wrap;html=1;shadow=0;comic=0;pointerEvents=1;strokeColor=#000000;strokeWidth=1;fontFamily=Helvetica;fontSize=12;fillColor=#FFFFFF;fontColor=#000000;" vertex="1" parent="1">
                        <mxGeometry x="70" y="980" width="145" height="60" as="geometry"/>
                    </mxCell>
                </UserObject>
                <UserObject label="%Skill%&lt;hr&gt;%Level%" Skill="Story Telling" Level="5" Experience="15" placeholders="1" id="588">
                    <mxCell style="shape=partialRectangle;whiteSpace=wrap;html=1;shadow=0;comic=0;pointerEvents=1;strokeColor=#000000;strokeWidth=1;fontFamily=Helvetica;fontSize=12;fillColor=#FFFFFF;fontColor=#000000;" vertex="1" parent="1">
                        <mxGeometry x="70" y="1040" width="145" height="60" as="geometry"/>
                    </mxCell>
                </UserObject>
                <UserObject label="%Skill%&lt;hr&gt;%Level%" Skill="Feline Agility" Level="3" Experience="6" placeholders="1" id="589">
                    <mxCell style="shape=partialRectangle;whiteSpace=wrap;html=1;shadow=0;comic=0;pointerEvents=1;strokeColor=#000000;strokeWidth=1;fontFamily=Helvetica;fontSize=12;fillColor=#FFFFFF;fontColor=#000000;" vertex="1" parent="1">
                        <mxGeometry x="70" y="1100" width="145" height="60" as="geometry"/>
                    </mxCell>
                </UserObject>
                <UserObject label="%Skill%&lt;hr&gt;%Level%" Skill="Stealth" Level="7" Experience="28" placeholders="1" id="590">
                    <mxCell style="shape=partialRectangle;whiteSpace=wrap;html=1;shadow=0;comic=0;pointerEvents=1;strokeColor=#000000;strokeWidth=1;fontFamily=Helvetica;fontSize=12;fillColor=#FFFFFF;fontColor=#000000;" vertex="1" parent="1">
                        <mxGeometry x="70" y="1160" width="145" height="60" as="geometry"/>
                    </mxCell>
                </UserObject>
                <UserObject label="%Skill%&lt;hr&gt;%Level%" Skill="Lockpicking" Level="6" Experience="21" placeholders="1" id="591">
                    <mxCell style="shape=partialRectangle;whiteSpace=wrap;html=1;shadow=0;comic=0;pointerEvents=1;strokeColor=#000000;strokeWidth=1;fontFamily=Helvetica;fontSize=12;fillColor=#FFFFFF;fontColor=#000000;" vertex="1" parent="1">
                        <mxGeometry x="70" y="1220" width="145" height="60" as="geometry"/>
                    </mxCell>
                </UserObject>
                <UserObject label="%Skill%&lt;hr&gt;%Level%" Skill="Sleight of Hand" Level="5" Experience="15" placeholders="1" id="592">
                    <mxCell style="shape=partialRectangle;whiteSpace=wrap;html=1;shadow=0;comic=0;pointerEvents=1;strokeColor=#000000;strokeWidth=1;fontFamily=Helvetica;fontSize=12;fillColor=#FFFFFF;fontColor=#000000;" vertex="1" parent="1">
                        <mxGeometry x="70" y="1280" width="145" height="60" as="geometry"/>
                    </mxCell>
                </UserObject>
                <UserObject label="%Skill%&lt;hr&gt;%Level%" Skill="Building Trust" Level="9" Experience="45" placeholders="1" id="593">
                    <mxCell style="shape=partialRectangle;whiteSpace=wrap;html=1;shadow=0;comic=0;pointerEvents=1;strokeColor=#000000;strokeWidth=1;fontFamily=Helvetica;fontSize=12;fillColor=#FFFFFF;fontColor=#000000;" vertex="1" parent="1">
                        <mxGeometry x="70" y="1340" width="145" height="60" as="geometry"/>
                    </mxCell>
                </UserObject>
                <UserObject label="%Skill%&lt;hr&gt;%Level%" Skill="Small Talk" Level="8" Experience="36" placeholders="1" id="594">
                    <mxCell style="shape=partialRectangle;whiteSpace=wrap;html=1;shadow=0;comic=0;pointerEvents=1;strokeColor=#000000;strokeWidth=1;fontFamily=Helvetica;fontSize=12;fillColor=#FFFFFF;fontColor=#000000;" vertex="1" parent="1">
                        <mxGeometry x="70" y="1400" width="145" height="60" as="geometry"/>
                    </mxCell>
                </UserObject>
                <UserObject label="%Skill%&lt;hr&gt;%Level%" Skill="Empathy" Level="11" Experience="66" placeholders="1" id="595">
                    <mxCell style="shape=partialRectangle;whiteSpace=wrap;html=1;shadow=0;comic=0;pointerEvents=1;strokeColor=#000000;strokeWidth=1;fontFamily=Helvetica;fontSize=12;fillColor=#FFFFFF;fontColor=#000000;" vertex="1" parent="1">
                        <mxGeometry x="70" y="1460" width="145" height="60" as="geometry"/>
                    </mxCell>
                </UserObject>
                <UserObject label="%Skill%&lt;hr&gt;%Level%" Skill="Begging" Level="12" Experience="78" placeholders="1" id="596">
                    <mxCell style="shape=partialRectangle;whiteSpace=wrap;html=1;shadow=0;comic=0;pointerEvents=1;strokeColor=#000000;strokeWidth=1;fontFamily=Helvetica;fontSize=12;fillColor=#FFFFFF;fontColor=#000000;" vertex="1" parent="1">
                        <mxGeometry x="70" y="1520" width="145" height="60" as="geometry"/>
                    </mxCell>
                </UserObject>
                <UserObject label="%Skill%&lt;hr&gt;%Level%" Skill="Bartering" Level="7" Experience="28" placeholders="1" id="597">
                    <mxCell style="shape=partialRectangle;whiteSpace=wrap;html=1;shadow=0;comic=0;pointerEvents=1;strokeColor=#000000;strokeWidth=1;fontFamily=Helvetica;fontSize=12;fillColor=#FFFFFF;fontColor=#000000;" vertex="1" parent="1">
                        <mxGeometry x="70" y="1580" width="145" height="60" as="geometry"/>
                    </mxCell>
                </UserObject>
                <UserObject label="%Skill%&lt;hr&gt;%Level%" Skill="Instigator" Level="8" Experience="36" placeholders="1" id="598">
                    <mxCell style="shape=partialRectangle;whiteSpace=wrap;html=1;shadow=0;comic=0;pointerEvents=1;strokeColor=#000000;strokeWidth=1;fontFamily=Helvetica;fontSize=12;fillColor=#FFFFFF;fontColor=#000000;" vertex="1" parent="1">
                        <mxGeometry x="70" y="1640" width="145" height="60" as="geometry"/>
                    </mxCell>
                </UserObject>
                <UserObject label="%Skill%&lt;hr&gt;%Level%" Skill="Persuasion" Level="9" Experience="45" placeholders="1" id="599">
                    <mxCell style="shape=partialRectangle;whiteSpace=wrap;html=1;shadow=0;comic=0;pointerEvents=1;strokeColor=#000000;strokeWidth=1;fontFamily=Helvetica;fontSize=12;fillColor=#FFFFFF;fontColor=#000000;" vertex="1" parent="1">
                        <mxGeometry x="70" y="1700" width="145" height="60" as="geometry"/>
                    </mxCell>
                </UserObject>
                <UserObject label="%Skill%&lt;hr&gt;%Level%" Skill="Empathy" Level="10" Experience="55" placeholders="1" id="600">
                    <mxCell style="shape=partialRectangle;whiteSpace=wrap;html=1;shadow=0;comic=0;pointerEvents=1;strokeColor=#000000;strokeWidth=1;fontFamily=Helvetica;fontSize=12;fillColor=#FFFFFF;fontColor=#000000;" vertex="1" parent="1">
                        <mxGeometry x="70" y="1760" width="145" height="60" as="geometry"/>
                    </mxCell>
                </UserObject>
                <UserObject label="%Skill%&lt;hr&gt;%Level%" Skill="Conflict Avoidance" Level="12" Experience="78" placeholders="1" id="601">
                    <mxCell style="shape=partialRectangle;whiteSpace=wrap;html=1;shadow=0;comic=0;pointerEvents=1;strokeColor=#000000;strokeWidth=1;fontFamily=Helvetica;fontSize=12;fillColor=#FFFFFF;fontColor=#000000;" vertex="1" parent="1">
                        <mxGeometry x="70" y="1820" width="145" height="60" as="geometry"/>
                    </mxCell>
                </UserObject>
                <UserObject label="%Skill%&lt;hr&gt;%Level%" Skill="Convincing" Level="6" Experience="21" placeholders="1" id="602">
                    <mxCell style="shape=partialRectangle;whiteSpace=wrap;html=1;shadow=0;comic=0;pointerEvents=1;strokeColor=#000000;strokeWidth=1;fontFamily=Helvetica;fontSize=12;fillColor=#FFFFFF;fontColor=#000000;" vertex="1" parent="1">
                        <mxGeometry x="505" y="1340" width="145" height="60" as="geometry"/>
                    </mxCell>
                </UserObject>
                <UserObject label="%Skill%&lt;hr&gt;%Level%" Skill="Linguistics" Level="4" Experience="10" placeholders="1" id="603">
                    <mxCell style="shape=partialRectangle;whiteSpace=wrap;html=1;shadow=0;comic=0;pointerEvents=1;strokeColor=#000000;strokeWidth=1;fontFamily=Helvetica;fontSize=12;fillColor=#FFFFFF;fontColor=#000000;" vertex="1" parent="1">
                        <mxGeometry x="505" y="1400" width="145" height="60" as="geometry"/>
                    </mxCell>
                </UserObject>
                <UserObject label="%Skill%&lt;hr&gt;%Level%" Skill="Sign Language" Level="8" Experience="36" placeholders="1" id="604">
                    <mxCell style="shape=partialRectangle;whiteSpace=wrap;html=1;shadow=0;comic=0;pointerEvents=1;strokeColor=#000000;strokeWidth=1;fontFamily=Helvetica;fontSize=12;fillColor=#FFFFFF;fontColor=#000000;" vertex="1" parent="1">
                        <mxGeometry x="505" y="1460" width="145" height="60" as="geometry"/>
                    </mxCell>
                </UserObject>
                <UserObject label="%Skill%&lt;hr&gt;%Level%" Skill="Culture" Level="6" Experience="21" placeholders="1" id="605">
                    <mxCell style="shape=partialRectangle;whiteSpace=wrap;html=1;shadow=0;comic=0;pointerEvents=1;strokeColor=#000000;strokeWidth=1;fontFamily=Helvetica;fontSize=12;fillColor=#FFFFFF;fontColor=#000000;" vertex="1" parent="1">
                        <mxGeometry x="505" y="1520" width="145" height="60" as="geometry"/>
                    </mxCell>
                </UserObject>
                <UserObject label="%Skill%&lt;hr&gt;%Level%" Skill="History" Level="5" Experience="15" placeholders="1" id="606">
                    <mxCell style="shape=partialRectangle;whiteSpace=wrap;html=1;shadow=0;comic=0;pointerEvents=1;strokeColor=#000000;strokeWidth=1;fontFamily=Helvetica;fontSize=12;fillColor=#FFFFFF;fontColor=#000000;" vertex="1" parent="1">
                        <mxGeometry x="505" y="1580" width="145" height="60" as="geometry"/>
                    </mxCell>
                </UserObject>
                <UserObject label="%Skill%&lt;hr&gt;%Level%" Skill="Politics" Level="3" Experience="6" placeholders="1" id="607">
                    <mxCell style="shape=partialRectangle;whiteSpace=wrap;html=1;shadow=0;comic=0;pointerEvents=1;strokeColor=#000000;strokeWidth=1;fontFamily=Helvetica;fontSize=12;fillColor=#FFFFFF;fontColor=#000000;" vertex="1" parent="1">
                        <mxGeometry x="505" y="1640" width="145" height="60" as="geometry"/>
                    </mxCell>
                </UserObject>
                <UserObject label="%Skill%&lt;hr&gt;%Level%" Skill="Martial Arts" Level="3" Experience="6" placeholders="1" id="608">
                    <mxCell style="shape=partialRectangle;whiteSpace=wrap;html=1;shadow=0;comic=0;pointerEvents=1;strokeColor=#000000;strokeWidth=1;fontFamily=Helvetica;fontSize=12;fillColor=#FFFFFF;fontColor=#000000;" vertex="1" parent="1">
                        <mxGeometry x="505" y="1700" width="145" height="60" as="geometry"/>
                    </mxCell>
                </UserObject>
                <UserObject label="%Skill%&lt;hr&gt;%Level%" Skill="Cooking" Level="3" Experience="6" placeholders="1" id="609">
                    <mxCell style="shape=partialRectangle;whiteSpace=wrap;html=1;shadow=0;comic=0;pointerEvents=1;strokeColor=#000000;strokeWidth=1;fontFamily=Helvetica;fontSize=12;fillColor=#FFFFFF;fontColor=#000000;" vertex="1" parent="1">
                        <mxGeometry x="505" y="1760" width="145" height="60" as="geometry"/>
                    </mxCell>
                </UserObject>
                <UserObject label="%Skill%&lt;hr&gt;%Level%" Skill="Cleaning" Level="4" Experience="10" placeholders="1" id="610">
                    <mxCell style="shape=partialRectangle;whiteSpace=wrap;html=1;shadow=0;comic=0;pointerEvents=1;strokeColor=#000000;strokeWidth=1;fontFamily=Helvetica;fontSize=12;fillColor=#FFFFFF;fontColor=#000000;" vertex="1" parent="1">
                        <mxGeometry x="215" y="860" width="145" height="60" as="geometry"/>
                    </mxCell>
                </UserObject>
                <UserObject label="%Skill%&lt;hr&gt;%Level%" Skill="Tracking" Level="3" Experience="6" placeholders="1" id="611">
                    <mxCell style="shape=partialRectangle;whiteSpace=wrap;html=1;shadow=0;comic=0;pointerEvents=1;strokeColor=#000000;strokeWidth=1;fontFamily=Helvetica;fontSize=12;fillColor=#FFFFFF;fontColor=#000000;" vertex="1" parent="1">
                        <mxGeometry x="215" y="920" width="145" height="60" as="geometry"/>
                    </mxCell>
                </UserObject>
                <UserObject label="%Skill%&lt;hr&gt;%Level%" Skill="Charm" Level="5" Experience="15" placeholders="1" id="612">
                    <mxCell style="shape=partialRectangle;whiteSpace=wrap;html=1;shadow=0;comic=0;pointerEvents=1;strokeColor=#000000;strokeWidth=1;fontFamily=Helvetica;fontSize=12;fillColor=#FFFFFF;fontColor=#000000;" vertex="1" parent="1">
                        <mxGeometry x="215" y="980" width="145" height="60" as="geometry"/>
                    </mxCell>
                </UserObject>
                <UserObject label="%Skill%&lt;hr&gt;%Level%" Skill="Running" Level="4" Experience="10" placeholders="1" id="613">
                    <mxCell style="shape=partialRectangle;whiteSpace=wrap;html=1;shadow=0;comic=0;pointerEvents=1;strokeColor=#000000;strokeWidth=1;fontFamily=Helvetica;fontSize=12;fillColor=#FFFFFF;fontColor=#000000;" vertex="1" parent="1">
                        <mxGeometry x="215" y="1040" width="145" height="60" as="geometry"/>
                    </mxCell>
                </UserObject>
                <UserObject label="%Skill%&lt;hr&gt;%Level%" Skill="Climbing" Level="3" Experience="6" placeholders="1" id="614">
                    <mxCell style="shape=partialRectangle;whiteSpace=wrap;html=1;shadow=0;comic=0;pointerEvents=1;strokeColor=#000000;strokeWidth=1;fontFamily=Helvetica;fontSize=12;fillColor=#FFFFFF;fontColor=#000000;" vertex="1" parent="1">
                        <mxGeometry x="215" y="1100" width="145" height="60" as="geometry"/>
                    </mxCell>
                </UserObject>
                <UserObject label="%Skill%&lt;hr&gt;%Level%" Skill="Dodging" Level="4" Experience="10" placeholders="1" id="615">
                    <mxCell style="shape=partialRectangle;whiteSpace=wrap;html=1;shadow=0;comic=0;pointerEvents=1;strokeColor=#000000;strokeWidth=1;fontFamily=Helvetica;fontSize=12;fillColor=#FFFFFF;fontColor=#000000;" vertex="1" parent="1">
                        <mxGeometry x="215" y="1160" width="145" height="60" as="geometry"/>
                    </mxCell>
                </UserObject>
                <UserObject label="%Skill%&lt;hr&gt;%Level%" Skill="Compassion" Level="6" Experience="21" placeholders="1" id="616">
                    <mxCell style="shape=partialRectangle;whiteSpace=wrap;html=1;shadow=0;comic=0;pointerEvents=1;strokeColor=#000000;strokeWidth=1;fontFamily=Helvetica;fontSize=12;fillColor=#FFFFFF;fontColor=#000000;" vertex="1" parent="1">
                        <mxGeometry x="215" y="1220" width="145" height="60" as="geometry"/>
                    </mxCell>
                </UserObject>
                <UserObject label="%Skill%&lt;hr&gt;%Level%" Skill="Trap Crafting" Level="7" Experience="28" placeholders="1" id="617">
                    <mxCell style="shape=partialRectangle;whiteSpace=wrap;html=1;shadow=0;comic=0;pointerEvents=1;strokeColor=#000000;strokeWidth=1;fontFamily=Helvetica;fontSize=12;fillColor=#FFFFFF;fontColor=#000000;" vertex="1" parent="1">
                        <mxGeometry x="215" y="1280" width="145" height="60" as="geometry"/>
                    </mxCell>
                </UserObject>
                <UserObject label="%Skill%&lt;hr&gt;%Level%" Skill="Trap Concealment" Level="8" Experience="36" placeholders="1" id="618">
                    <mxCell style="shape=partialRectangle;whiteSpace=wrap;html=1;shadow=0;comic=0;pointerEvents=1;strokeColor=#000000;strokeWidth=1;fontFamily=Helvetica;fontSize=12;fillColor=#FFFFFF;fontColor=#000000;" vertex="1" parent="1">
                        <mxGeometry x="215" y="1340" width="145" height="60" as="geometry"/>
                    </mxCell>
                </UserObject>
                <UserObject label="%Skill%&lt;hr&gt;%Level%" Skill="Trap Disarming" Level="10" Experience="55" placeholders="1" id="619">
                    <mxCell style="shape=partialRectangle;whiteSpace=wrap;html=1;shadow=0;comic=0;pointerEvents=1;strokeColor=#000000;strokeWidth=1;fontFamily=Helvetica;fontSize=12;fillColor=#FFFFFF;fontColor=#000000;" vertex="1" parent="1">
                        <mxGeometry x="215" y="1400" width="145" height="60" as="geometry"/>
                    </mxCell>
                </UserObject>
                <UserObject label="%Skill%&lt;hr&gt;%Level%" Skill="Laundry" Level="4" Experience="10" placeholders="1" id="620">
                    <mxCell style="shape=partialRectangle;whiteSpace=wrap;html=1;shadow=0;comic=0;pointerEvents=1;strokeColor=#000000;strokeWidth=1;fontFamily=Helvetica;fontSize=12;fillColor=#FFFFFF;fontColor=#000000;" vertex="1" parent="1">
                        <mxGeometry x="215" y="1460" width="145" height="60" as="geometry"/>
                    </mxCell>
                </UserObject>
                <UserObject label="%Skill%&lt;hr&gt;%Level%" Skill="Sewing" Level="3" Experience="6" placeholders="1" id="621">
                    <mxCell style="shape=partialRectangle;whiteSpace=wrap;html=1;shadow=0;comic=0;pointerEvents=1;strokeColor=#000000;strokeWidth=1;fontFamily=Helvetica;fontSize=12;fillColor=#FFFFFF;fontColor=#000000;" vertex="1" parent="1">
                        <mxGeometry x="215" y="1520" width="145" height="60" as="geometry"/>
                    </mxCell>
                </UserObject>
                <UserObject label="%Skill%&lt;hr&gt;%Level%" Skill="Sleep Resistance" Level="9" Experience="45" placeholders="1" id="622">
                    <mxCell style="shape=partialRectangle;whiteSpace=wrap;html=1;shadow=0;comic=0;pointerEvents=1;strokeColor=#000000;strokeWidth=1;fontFamily=Helvetica;fontSize=12;fillColor=#FFFFFF;fontColor=#000000;" vertex="1" parent="1">
                        <mxGeometry x="215" y="1580" width="145" height="60" as="geometry"/>
                    </mxCell>
                </UserObject>
                <UserObject label="%Skill%&lt;hr&gt;%Level%" Skill="Pain Resistance" Level="13" Experience="91" placeholders="1" id="623">
                    <mxCell style="shape=partialRectangle;whiteSpace=wrap;html=1;shadow=0;comic=0;pointerEvents=1;strokeColor=#000000;strokeWidth=1;fontFamily=Helvetica;fontSize=12;fillColor=#FFFFFF;fontColor=#000000;" vertex="1" parent="1">
                        <mxGeometry x="215" y="1640" width="145" height="60" as="geometry"/>
                    </mxCell>
                </UserObject>
                <UserObject label="%Skill%&lt;hr&gt;%Level%" Skill="Stress Resistance" Level="12" Experience="78" placeholders="1" id="624">
                    <mxCell style="shape=partialRectangle;whiteSpace=wrap;html=1;shadow=0;comic=0;pointerEvents=1;strokeColor=#000000;strokeWidth=1;fontFamily=Helvetica;fontSize=12;fillColor=#FFFFFF;fontColor=#000000;" vertex="1" parent="1">
                        <mxGeometry x="215" y="1700" width="145" height="60" as="geometry"/>
                    </mxCell>
                </UserObject>
                <UserObject label="%Skill%&lt;hr&gt;%Level%" Skill="Psi Resistance" Level="13" Experience="91" placeholders="1" id="625">
                    <mxCell style="shape=partialRectangle;whiteSpace=wrap;html=1;shadow=0;comic=0;pointerEvents=1;strokeColor=#000000;strokeWidth=1;fontFamily=Helvetica;fontSize=12;fillColor=#FFFFFF;fontColor=#000000;" vertex="1" parent="1">
                        <mxGeometry x="215" y="1760" width="145" height="60" as="geometry"/>
                    </mxCell>
                </UserObject>
                <UserObject label="%Skill%&lt;hr&gt;%Level%" Skill="Panic Resistance" Level="10" Experience="55" placeholders="1" id="626">
                    <mxCell style="shape=partialRectangle;whiteSpace=wrap;html=1;shadow=0;comic=0;pointerEvents=1;strokeColor=#000000;strokeWidth=1;fontFamily=Helvetica;fontSize=12;fillColor=#FFFFFF;fontColor=#000000;" vertex="1" parent="1">
                        <mxGeometry x="215" y="1820" width="145" height="60" as="geometry"/>
                    </mxCell>
                </UserObject>
                <UserObject label="%Skill%&lt;hr&gt;%Level%" Skill="Fear Resistance" Level="14" Experience="105" placeholders="1" id="627">
                    <mxCell style="shape=partialRectangle;whiteSpace=wrap;html=1;shadow=0;comic=0;pointerEvents=1;strokeColor=#000000;strokeWidth=1;fontFamily=Helvetica;fontSize=12;fillColor=#FFFFFF;fontColor=#000000;" vertex="1" parent="1">
                        <mxGeometry x="505" y="860" width="145" height="60" as="geometry"/>
                    </mxCell>
                </UserObject>
                <UserObject label="%Skill%&lt;hr&gt;%Level%" Skill="Despair Resistance" Level="13" Experience="91" placeholders="1" id="628">
                    <mxCell style="shape=partialRectangle;whiteSpace=wrap;html=1;shadow=0;comic=0;pointerEvents=1;strokeColor=#000000;strokeWidth=1;fontFamily=Helvetica;fontSize=12;fillColor=#FFFFFF;fontColor=#000000;" vertex="1" parent="1">
                        <mxGeometry x="505" y="920" width="145" height="60" as="geometry"/>
                    </mxCell>
                </UserObject>
                <UserObject label="%Skill%&lt;hr&gt;%Level%" Skill="Hypnosis Resistance" Level="11" Experience="66" placeholders="1" id="629">
                    <mxCell style="shape=partialRectangle;whiteSpace=wrap;html=1;shadow=0;comic=0;pointerEvents=1;strokeColor=#000000;strokeWidth=1;fontFamily=Helvetica;fontSize=12;fillColor=#FFFFFF;fontColor=#000000;" vertex="1" parent="1">
                        <mxGeometry x="505" y="980" width="145" height="60" as="geometry"/>
                    </mxCell>
                </UserObject>
                <UserObject label="%Skill%&lt;hr&gt;%Level%" Skill="Tenacity" Level="8" Experience="36" placeholders="1" id="630">
                    <mxCell style="shape=partialRectangle;whiteSpace=wrap;html=1;shadow=0;comic=0;pointerEvents=1;strokeColor=#000000;strokeWidth=1;fontFamily=Helvetica;fontSize=12;fillColor=#FFFFFF;fontColor=#000000;" vertex="1" parent="1">
                        <mxGeometry x="505" y="1040" width="145" height="60" as="geometry"/>
                    </mxCell>
                </UserObject>
                <UserObject label="%Skill%&lt;hr&gt;%Level%" Skill="Perseverance" Level="13" Experience="91" placeholders="1" id="631">
                    <mxCell style="shape=partialRectangle;whiteSpace=wrap;html=1;shadow=0;comic=0;pointerEvents=1;strokeColor=#000000;strokeWidth=1;fontFamily=Helvetica;fontSize=12;fillColor=#FFFFFF;fontColor=#000000;" vertex="1" parent="1">
                        <mxGeometry x="505" y="1100" width="145" height="60" as="geometry"/>
                    </mxCell>
                </UserObject>
                <UserObject label="%Skill%&lt;hr&gt;%Level%" Skill="Fortitude" Level="10" Experience="55" placeholders="1" id="632">
                    <mxCell style="shape=partialRectangle;whiteSpace=wrap;html=1;shadow=0;comic=0;pointerEvents=1;strokeColor=#000000;strokeWidth=1;fontFamily=Helvetica;fontSize=12;fillColor=#FFFFFF;fontColor=#000000;" vertex="1" parent="1">
                        <mxGeometry x="505" y="1160" width="145" height="60" as="geometry"/>
                    </mxCell>
                </UserObject>
                <UserObject label="%Skill%&lt;hr&gt;%Level%" Skill="Courage" Level="8" Experience="36" placeholders="1" id="633">
                    <mxCell style="shape=partialRectangle;whiteSpace=wrap;html=1;shadow=0;comic=0;pointerEvents=1;strokeColor=#000000;strokeWidth=1;fontFamily=Helvetica;fontSize=12;fillColor=#FFFFFF;fontColor=#000000;" vertex="1" parent="1">
                        <mxGeometry x="505" y="1220" width="145" height="60" as="geometry"/>
                    </mxCell>
                </UserObject>
                <UserObject label="%Skill%&lt;hr&gt;%Level%" Skill="Adaptability" Level="15" Experience="120" placeholders="1" id="634">
                    <mxCell style="shape=partialRectangle;whiteSpace=wrap;html=1;shadow=0;comic=0;pointerEvents=1;strokeColor=#000000;strokeWidth=1;fontFamily=Helvetica;fontSize=12;fillColor=#FFFFFF;fontColor=#000000;" vertex="1" parent="1">
                        <mxGeometry x="505" y="1280" width="145" height="60" as="geometry"/>
                    </mxCell>
                </UserObject>
                <UserObject label="%Skill%&lt;hr&gt;%Level%" Skill="Intuition Enhancement" Level="13" Experience="91" placeholders="1" id="635">
                    <mxCell style="shape=partialRectangle;whiteSpace=wrap;html=1;shadow=0;comic=0;pointerEvents=1;strokeColor=#000000;strokeWidth=1;fontFamily=Helvetica;fontSize=12;fillColor=#FFFFFF;fontColor=#000000;" vertex="1" parent="1">
                        <mxGeometry x="360" y="860" width="145" height="60" as="geometry"/>
                    </mxCell>
                </UserObject>
                <UserObject label="%Skill%&lt;hr&gt;%Level%" Skill="Creative Thinking" Level="6" Experience="21" placeholders="1" id="636">
                    <mxCell style="shape=partialRectangle;whiteSpace=wrap;html=1;shadow=0;comic=0;pointerEvents=1;strokeColor=#000000;strokeWidth=1;fontFamily=Helvetica;fontSize=12;fillColor=#FFFFFF;fontColor=#000000;" vertex="1" parent="1">
                        <mxGeometry x="360" y="920" width="145" height="60" as="geometry"/>
                    </mxCell>
                </UserObject>
                <UserObject label="%Skill%&lt;hr&gt;%Level%" Skill="Trauma Coping" Level="10" Experience="55" placeholders="1" id="637">
                    <mxCell style="shape=partialRectangle;whiteSpace=wrap;html=1;shadow=0;comic=0;pointerEvents=1;strokeColor=#000000;strokeWidth=1;fontFamily=Helvetica;fontSize=12;fillColor=#FFFFFF;fontColor=#000000;" vertex="1" parent="1">
                        <mxGeometry x="360" y="980" width="145" height="60" as="geometry"/>
                    </mxCell>
                </UserObject>
                <UserObject label="%Skill%&lt;hr&gt;%Level%" Skill="Gaslightning" Level="14" Experience="105" placeholders="1" id="638">
                    <mxCell style="shape=partialRectangle;whiteSpace=wrap;html=1;shadow=0;comic=0;pointerEvents=1;strokeColor=#000000;strokeWidth=1;fontFamily=Helvetica;fontSize=12;fillColor=#FFFFFF;fontColor=#000000;" vertex="1" parent="1">
                        <mxGeometry x="360" y="1040" width="145" height="60" as="geometry"/>
                    </mxCell>
                </UserObject>
                <UserObject label="%Skill%&lt;hr&gt;%Level%" Skill="Coercion" Level="10" Experience="55" placeholders="1" id="639">
                    <mxCell style="shape=partialRectangle;whiteSpace=wrap;html=1;shadow=0;comic=0;pointerEvents=1;strokeColor=#000000;strokeWidth=1;fontFamily=Helvetica;fontSize=12;fillColor=#FFFFFF;fontColor=#000000;" vertex="1" parent="1">
                        <mxGeometry x="360" y="1100" width="145" height="60" as="geometry"/>
                    </mxCell>
                </UserObject>
                <UserObject label="%Skill%&lt;hr&gt;%Level%" Skill="Lying" Level="16" Experience="136" placeholders="1" id="640">
                    <mxCell style="shape=partialRectangle;whiteSpace=wrap;html=1;shadow=0;comic=0;pointerEvents=1;strokeColor=#000000;strokeWidth=1;fontFamily=Helvetica;fontSize=12;fillColor=#FFFFFF;fontColor=#000000;" vertex="1" parent="1">
                        <mxGeometry x="360" y="1160" width="145" height="60" as="geometry"/>
                    </mxCell>
                </UserObject>
                <UserObject label="%Skill%&lt;hr&gt;%Level%" Skill="Sexwork" Level="3" Experience="6" placeholders="1" id="641">
                    <mxCell style="shape=partialRectangle;whiteSpace=wrap;html=1;shadow=0;comic=0;pointerEvents=1;strokeColor=#000000;strokeWidth=1;fontFamily=Helvetica;fontSize=12;fillColor=#FFFFFF;fontColor=#000000;" vertex="1" parent="1">
                        <mxGeometry x="360" y="1220" width="145" height="60" as="geometry"/>
                    </mxCell>
                </UserObject>
                <UserObject label="%Skill%&lt;hr&gt;%Level%" Skill="Seducing" Level="4" Experience="10" placeholders="1" id="642">
                    <mxCell style="shape=partialRectangle;whiteSpace=wrap;html=1;shadow=0;comic=0;pointerEvents=1;strokeColor=#000000;strokeWidth=1;fontFamily=Helvetica;fontSize=12;fillColor=#FFFFFF;fontColor=#000000;" vertex="1" parent="1">
                        <mxGeometry x="360" y="1280" width="145" height="60" as="geometry"/>
                    </mxCell>
                </UserObject>
                <UserObject label="%Skill%&lt;hr&gt;%Level%" Skill="Flirting" Level="4" Experience="10" placeholders="1" id="643">
                    <mxCell style="shape=partialRectangle;whiteSpace=wrap;html=1;shadow=0;comic=0;pointerEvents=1;strokeColor=#000000;strokeWidth=1;fontFamily=Helvetica;fontSize=12;fillColor=#FFFFFF;fontColor=#000000;" vertex="1" parent="1">
                        <mxGeometry x="360" y="1340" width="145" height="60" as="geometry"/>
                    </mxCell>
                </UserObject>
                <UserObject label="%Skill%&lt;hr&gt;%Level%" Skill="Cold Resistance" Level="13" Experience="91" placeholders="1" id="644">
                    <mxCell style="shape=partialRectangle;whiteSpace=wrap;html=1;shadow=0;comic=0;pointerEvents=1;strokeColor=#000000;strokeWidth=1;fontFamily=Helvetica;fontSize=12;fillColor=#FFFFFF;fontColor=#000000;" vertex="1" parent="1">
                        <mxGeometry x="360" y="1400" width="145" height="60" as="geometry"/>
                    </mxCell>
                </UserObject>
                <UserObject label="%Skill%&lt;hr&gt;%Level%" Skill="Heat Resistance" Level="14" Experience="105" placeholders="1" id="645">
                    <mxCell style="shape=partialRectangle;whiteSpace=wrap;html=1;shadow=0;comic=0;pointerEvents=1;strokeColor=#000000;strokeWidth=1;fontFamily=Helvetica;fontSize=12;fillColor=#FFFFFF;fontColor=#000000;" vertex="1" parent="1">
                        <mxGeometry x="360" y="1460" width="145" height="60" as="geometry"/>
                    </mxCell>
                </UserObject>
                <UserObject label="%Skill%&lt;hr&gt;%Level%" Skill="Hex Resistance" Level="10" Experience="55" placeholders="1" id="646">
                    <mxCell style="shape=partialRectangle;whiteSpace=wrap;html=1;shadow=0;comic=0;pointerEvents=1;strokeColor=#000000;strokeWidth=1;fontFamily=Helvetica;fontSize=12;fillColor=#FFFFFF;fontColor=#000000;" vertex="1" parent="1">
                        <mxGeometry x="360" y="1520" width="145" height="60" as="geometry"/>
                    </mxCell>
                </UserObject>
                <UserObject label="%Skill%&lt;hr&gt;%Level%" Skill="Disease Resistance" Level="12" Experience="78" placeholders="1" id="647">
                    <mxCell style="shape=partialRectangle;whiteSpace=wrap;html=1;shadow=0;comic=0;pointerEvents=1;strokeColor=#000000;strokeWidth=1;fontFamily=Helvetica;fontSize=12;fillColor=#FFFFFF;fontColor=#000000;" vertex="1" parent="1">
                        <mxGeometry x="360" y="1580" width="145" height="60" as="geometry"/>
                    </mxCell>
                </UserObject>
                <UserObject label="%Skill%&lt;hr&gt;%Level%" Skill="Abnormal Status Resistance" Level="4" Experience="10" placeholders="1" id="648">
                    <mxCell style="shape=partialRectangle;whiteSpace=wrap;html=1;shadow=0;comic=0;pointerEvents=1;strokeColor=#000000;strokeWidth=1;fontFamily=Helvetica;fontSize=12;fillColor=#FFFFFF;fontColor=#000000;" vertex="1" parent="1">
                        <mxGeometry x="360" y="1640" width="145" height="60" as="geometry"/>
                    </mxCell>
                </UserObject>
                <UserObject label="%Skill%&lt;hr&gt;%Level%" Skill="Curse Resistance" Level="15" Experience="120" placeholders="1" id="649">
                    <mxCell style="shape=partialRectangle;whiteSpace=wrap;html=1;shadow=0;comic=0;pointerEvents=1;strokeColor=#000000;strokeWidth=1;fontFamily=Helvetica;fontSize=12;fillColor=#FFFFFF;fontColor=#000000;" vertex="1" parent="1">
                        <mxGeometry x="360" y="1700" width="145" height="60" as="geometry"/>
                    </mxCell>
                </UserObject>
                <UserObject label="%Skill%&lt;hr&gt;%Level%" Skill="Poison Resistance" Level="13" Experience="91" placeholders="1" id="650">
                    <mxCell style="shape=partialRectangle;whiteSpace=wrap;html=1;shadow=0;comic=0;pointerEvents=1;strokeColor=#000000;strokeWidth=1;fontFamily=Helvetica;fontSize=12;fillColor=#FFFFFF;fontColor=#000000;" vertex="1" parent="1">
                        <mxGeometry x="360" y="1760" width="145" height="60" as="geometry"/>
                    </mxCell>
                </UserObject>
                <UserObject label="%Skill%&lt;hr&gt;%Level%" Skill="Corrosion Resistance" Level="14" Experience="105" placeholders="1" id="651">
                    <mxCell style="shape=partialRectangle;whiteSpace=wrap;html=1;shadow=0;comic=0;pointerEvents=1;strokeColor=#000000;strokeWidth=1;fontFamily=Helvetica;fontSize=12;fillColor=#FFFFFF;fontColor=#000000;" vertex="1" parent="1">
                        <mxGeometry x="360" y="1820" width="145" height="60" as="geometry"/>
                    </mxCell>
                </UserObject>
            </root>
        </mxGraphModel>
    </diagram>
</mxfile>